{
    "asset" : {
        "generator" : "Khronos glTF Blender I/O v3.4.50",
        "version" : "2.0"
    },
    "scene" : 0,
    "scenes" : [
        {
            "name" : "Scene",
            "nodes" : [
                0
            ]
        }
    ],
    "nodes" : [
        {
            "mesh" : 0,
            "name" : "dji_flycart_30",
            "scale" : [
                100,
                100,
                100
            ]
        }
    ],
    "materials" : [
        {
            "doubleSided" : true,
            "emissiveFactor" : [
                1,
                1,
                1
            ],
            "emissiveTexture" : {
                "index" : 0
            },
            "name" : "djiflycart30.001",
            "normalTexture" : {
                "index" : 1
            },
            "occlusionTexture" : {
                "index" : 2
            },
            "pbrMetallicRoughness" : {
                "baseColorTexture" : {
                    "index" : 3
                },
                "metallicRoughnessTexture" : {
                    "index" : 2
                }
            }
        }
    ],
    "meshes" : [
        {
            "name" : "C:\\\\Users\\\\User\\\\AppData\\\\Local\\\\Temp\\\\export.020",
            "primitives" : [
                {
                    "attributes" : {
                        "POSITION" : 0,
                        "TEXCOORD_0" : 1,
                        "TEXCOORD_1" : 2,
                        "NORMAL" : 3
                    },
                    "indices" : 4,
                    "material" : 0
                }
            ]
        }
    ],
    "textures" : [
        {
            "sampler" : 0,
            "source" : 0
        },
        {
            "sampler" : 0,
            "source" : 1
        },
        {
            "sampler" : 0,
            "source" : 2
        },
        {
            "sampler" : 0,
            "source" : 3
        }
    ],
    "images" : [
        {
            "mimeType" : "image/png",
            "name" : "djiFlyCart30_Emissive",
            "uri" : "djiFlyCart30_Emissive.png"
        },
        {
            "mimeType" : "image/png",
            "name" : "djiFlyCart30_Normal",
            "uri" : "djiFlyCart30_Normal.png"
        },
        {
            "mimeType" : "image/png",
            "name" : "djiFlyCart30_AO-djiFlyCart30_Roughness-djiFlyCart30_Metallic",
            "uri" : "djiFlyCart30_AO-djiFlyCart30_Roughness-djiFlyCart30_Metallic.png"
        },
        {
            "mimeType" : "image/png",
            "name" : "djiFlyCart30_BaseColor",
            "uri" : "djiFlyCart30_BaseColor.png"
        }
    ],
    "accessors" : [
        {
            "bufferView" : 0,
            "componentType" : 5126,
            "count" : 38572,
            "max" : [
                0.7932873368263245,
                0.44660484790802,
                0.8608838319778442
            ],
            "min" : [
                -0.7932873368263245,
                0,
                -0.8608838319778442
            ],
            "type" : "VEC3"
        },
        {
            "bufferView" : 1,
            "componentType" : 5126,
            "count" : 38572,
            "type" : "VEC2"
        },
        {
            "bufferView" : 2,
            "componentType" : 5126,
            "count" : 38572,
            "type" : "VEC2"
        },
        {
            "bufferView" : 3,
            "componentType" : 5126,
            "count" : 38572,
            "type" : "VEC3"
        },
        {
            "bufferView" : 4,
            "componentType" : 5123,
            "count" : 103734,
            "type" : "SCALAR"
        }
    ],
    "bufferViews" : [
        {
            "buffer" : 0,
            "byteLength" : 462864,
            "byteOffset" : 0,
            "target" : 34962
        },
        {
            "buffer" : 0,
            "byteLength" : 308576,
            "byteOffset" : 462864,
            "target" : 34962
        },
        {
            "buffer" : 0,
            "byteLength" : 308576,
            "byteOffset" : 771440,
            "target" : 34962
        },
        {
            "buffer" : 0,
            "byteLength" : 462864,
            "byteOffset" : 1080016,
            "target" : 34962
        },
        {
            "buffer" : 0,
            "byteLength" : 207468,
            "byteOffset" : 1542880,
            "target" : 34963
        }
    ],
    "samplers" : [
        {
            "magFilter" : 9729,
            "minFilter" : 9987
        }
    ],
    "buffers" : [
        {
            "byteLength" : 1750348,
            "uri" : "DJIFlyCart30.bin"
        }
    ]
}
